<svg xmlns="http://www.w3.org/2000/svg" width="23.118" height="23.118" viewBox="0 0 23.118 23.118">
  <path id="Icon_awesome-universal-access" data-name="Icon awesome-universal-access" d="M12.122,2.427a9.695,9.695,0,1,1-9.695,9.695,9.69,9.69,0,0,1,9.695-9.695m0-1.864A11.559,11.559,0,1,0,23.681,12.122,11.559,11.559,0,0,0,12.122.563Zm0,2.61a8.949,8.949,0,1,0,8.949,8.949A8.949,8.949,0,0,0,12.122,3.173Zm0,2.051A1.678,1.678,0,1,1,10.444,6.9,1.678,1.678,0,0,1,12.122,5.223Zm5.488,4.569a33.36,33.36,0,0,1-3.828.737c.04,4.709.574,5.735,1.167,7.253a.839.839,0,0,1-1.563.61,13.378,13.378,0,0,1-1.038-3.661H11.9a13.375,13.375,0,0,1-1.038,3.661.839.839,0,1,1-1.563-.61c.593-1.517,1.127-2.542,1.167-7.253a33.343,33.343,0,0,1-3.829-.737.746.746,0,0,1,.343-1.452c4.506,1.064,5.793,1.062,10.29,0a.746.746,0,1,1,.343,1.452Z" transform="translate(-0.563 -0.563)" fill="#722ae9"/>
</svg>
