<svg xmlns="http://www.w3.org/2000/svg" width="23.817" height="15.156" viewBox="0 0 23.817 15.156">
  <path id="Icon_material-group" data-name="Icon material-group" d="M17.739,14a3.248,3.248,0,1,0-3.248-3.248A3.234,3.234,0,0,0,17.739,14ZM9.078,14A3.248,3.248,0,1,0,5.83,10.748,3.234,3.234,0,0,0,9.078,14Zm0,2.165c-2.522,0-7.578,1.267-7.578,3.789v2.706H16.656V19.95C16.656,17.427,11.6,16.161,9.078,16.161Zm8.661,0c-.314,0-.671.022-1.05.054a4.568,4.568,0,0,1,2.133,3.735v2.706h6.5V19.95C25.317,17.427,20.261,16.161,17.739,16.161Z" transform="translate(-1.5 -7.5)" fill="#722ae9"/>
</svg>
